#!OML:ASF C:\ViconDB\ViconDB\414\Spring2016\041811\Spring2016.ASF
:FULLY-SPECIFIED
:DEGREES
286
root 10.401 17.9974 -11.9068 -178.947 -3.44194 -184.146
lowerback 1.20649 0.268792 -0.0543697
upperback 0.308016 0.345914 -0.766031
thorax -0.356538 0.169268 -0.758398
lowerneck -10.3853 5.23518 -5.74564
upperneck 28.1295 4.66463 8.1109
head 10.2598 1.77664 4.29444
rclavicle 3.71479e-015 3.97569e-016
rhumerus -89.3564 34.249 -120.798
rradius 91.407
rwrist 33.5184
rhand -43.8256 -0.0415932
rfingers 7.12502
rthumb -16.6533 -29.3472
lclavicle 3.71479e-015 3.97569e-016
lhumerus -88.0888 -45.8658 117.773
lradius 81.8579
lwrist -24.7718
lhand -41.482 -0.859949
lfingers 7.12502
lthumb -14.3961 28.6208
rfemur 161.48 388.168 -168.092
rtibia 54.5608
rfoot 12.119 -74.6767
rtoes -0.635438
lfemur -8.97048 -7.23376 -32.2083
ltibia 25.9529
lfoot -15.7507 -10.2461
ltoes -5.33635
287
root 10.3731 17.979 -12.059 -178.932 -2.96536 -184.549
lowerback 1.06987 0.343652 0.0117867
upperback 0.276101 0.446459 -0.835244
thorax -0.310299 0.21944 -0.867013
lowerneck -10.3977 5.16196 -6.12836
upperneck 28.2039 4.65211 8.04456
head 10.28 1.71655 4.33742
rclavicle 4.08751e-015 -1.90833e-014
rhumerus -89.2427 33.932 -120.591
rradius 91.4632
rwrist 33.6776
rhand -44.1059 -0.597494
rfingers 7.12502
rthumb -16.9231 -29.8802
lclavicle 4.08751e-015 -1.90833e-014
lhumerus -88.4604 -46.1817 117.988
lradius 82.1765
lwrist -23.6557
lhand -41.3025 -1.28418
lfingers 7.12502
lthumb -14.2231 28.2088
rfemur 164.789 388.286 -166.935
rtibia 52.6619
rfoot 7.5401 -73.5062
rtoes -0.494147
lfemur -8.22426 -6.68917 -32.7465
ltibia 25.5448
lfoot -15.7035 -10.4229
ltoes -4.36249
288
root 10.3454 17.9671 -12.2151 -178.874 -2.55322 -184.796
lowerback 0.877124 0.309556 0.13422
upperback 0.215407 0.403101 -0.872934
thorax -0.263927 0.197952 -0.972715
lowerneck -10.3222 5.26175 -6.13152
upperneck 28.1116 4.87097 7.81243
head 10.2218 1.79419 4.26983
rclavicle -3.00662e-015 -4.37326e-015
rhumerus -89.2489 33.7175 -120.683
rradius 91.4267
rwrist 33.9842
rhand -44.2712 -1.11049
rfingers 7.12502
rthumb -17.0823 -30.3795
lclavicle -3.00662e-015 -4.37326e-015
lhumerus -88.617 -45.9944 117.876
lradius 82.4052
lwrist -23.0549
lhand -41.1738 -1.23656
lfingers 7.12502
lthumb -14.0991 28.2651
rfemur 168.128 388.656 -165.523
rtibia 50.67
rfoot 3.6766 -72.2569
rtoes -0.0552075
lfemur -7.52671 -6.41829 -33.0951
ltibia 25.1077
lfoot -15.7467 -10.7656
ltoes -3.25516
289
root 10.318 17.9506 -12.3727 -178.836 -2.14642 -185.184
lowerback 0.687493 0.319538 0.143765
upperback 0.181869 0.416155 -0.941126
thorax -0.191172 0.204334 -1.04695
lowerneck -10.3285 5.27816 -6.09196
upperneck 28.1223 4.99444 7.43084
head 10.234 1.81034 4.13969
rclavicle 4.21175e-015 -1.59028e-015
rhumerus -89.3314 33.6568 -120.709
rradius 91.5167
rwrist 33.864
rhand -44.3528 -1.46904
rfingers 7.12502
rthumb -17.1608 -30.7312
lclavicle 4.21175e-015 -1.59028e-015
lhumerus -88.7427 -45.9416 117.8
lradius 82.6414
lwrist -22.5068
lhand -40.9717 -1.47918
lfingers 7.12502
lthumb -13.9044 28.036
rfemur 171.402 389.125 -164.241
rtibia 48.6188
rfoot -1.2801 -70.9866
rtoes -1.19023
lfemur -6.76668 -5.92398 -33.6301
ltibia 24.6701
lfoot -16.2659 -11.0622
ltoes -3.91808
290
root 10.2985 17.9293 -12.5329 -178.761 -1.73787 -185.613
lowerback 0.409717 0.363605 0.084781
upperback 0.144646 0.474117 -1.02556
thorax -0.072248 0.233025 -1.09899
lowerneck -10.3223 5.30009 -6.27506
upperneck 28.1564 5.071 7.39133
head 10.2341 1.81787 4.16478
rclavicle -1.22998e-015 6.36111e-015
rhumerus -89.2847 33.5089 -120.648
rradius 91.5003
rwrist 33.9295
rhand -44.479 -1.58294
rfingers 7.12502
rthumb -17.2822 -30.8345
lclavicle -1.22998e-015 6.36111e-015
lhumerus -88.8786 -45.9375 117.767
lradius 82.9168
lwrist -21.9088
lhand -40.6716 -1.57811
lfingers 7.12502
lthumb -13.6151 27.9566
rfemur 174.725 389.704 -162.854
rtibia 46.5213
rfoot -3.28247 -69.8259
rtoes -0.485345
lfemur -6.02922 -5.30008 -34.1696
ltibia 24.1822
lfoot -16.5752 -11.3479
ltoes -4.06006
291
root 10.2768 17.9113 -12.6909 -178.721 -1.39871 -185.907
lowerback 0.148789 0.346429 0.0983822
upperback 0.144975 0.452082 -1.06078
thorax 0.0742625 0.222251 -1.14085
lowerneck -10.4382 5.30944 -6.5517
upperneck 28.2198 5.15668 7.37465
head 10.264 1.82456 4.22086
rclavicle 1.22998e-015 4.77083e-015
rhumerus -89.2537 33.3965 -120.671
rradius 91.5405
rwrist 33.7202
rhand -44.3378 -1.42537
rfingers 7.12502
rthumb -17.1464 -30.6888
lclavicle 1.22998e-015 4.77083e-015
lhumerus -88.7246 -45.8589 117.48
lradius 83.0811
lwrist -21.4412
lhand -40.2481 -1.84217
lfingers 7.12502
lthumb -13.2069 27.7195
rfemur 177.999 390.582 -161.167
rtibia 44.4374
rfoot -7.71896 -67.5065
rtoes -1.47482
lfemur -5.22502 -4.84362 -34.5849
ltibia 23.6535
lfoot -16.8719 -11.5235
ltoes -4.16451
292
root 10.2531 17.8904 -12.8538 -178.537 -1.05268 -186.279
lowerback -0.315614 0.368128 0.0905932
upperback 0.138523 0.482001 -1.14666
thorax 0.329217 0.237329 -1.22128
lowerneck -10.5156 5.30274 -6.52448
upperneck 28.2256 5.26121 6.99238
head 10.2907 1.83323 4.09366
rclavicle -6.17475e-015 -1.35174e-014
rhumerus -89.0411 33.1968 -120.603
rradius 91.4941
rwrist 33.398
rhand -44.3957 -1.67741
rfingers 7.12502
rthumb -17.2021 -30.936
lclavicle -6.17475e-015 -1.35174e-014
lhumerus -88.4664 -45.8158 117.118
lradius 83.1221
lwrist -21.1071
lhand -39.9309 -2.03452
lfingers 7.12502
lthumb -12.9012 27.5467
rfemur 181.454 391.71 -159.283
rtibia 42.3749
rfoot -11.5869 -65.8249
rtoes -2.32733
lfemur -4.57368 -4.30815 -35.0754
ltibia 23.1173
lfoot -17.1463 -11.7554
ltoes -4.10461
293
root 10.2339 17.8616 -13.0187 -178.367 -0.806892 -186.766
lowerback -0.73912 0.344017 -0.122851
upperback 0.0920945 0.451571 -1.20601
thorax 0.517204 0.220946 -1.16009
lowerneck -10.4322 5.29021 -6.68369
upperneck 28.1438 5.33609 6.78625
head 10.242 1.82841 4.0478
rclavicle -4.9075e-015 -1.11319e-014
rhumerus -88.9305 33.1067 -120.519
rradius 91.7898
rwrist 31.5106
rhand -43.563 0.528908
rfingers 7.12502
rthumb -16.4004 -28.7977
lclavicle -4.9075e-015 -1.11319e-014
lhumerus -88.4161 -45.7629 116.996
lradius 83.3285
lwrist -20.5009
lhand -39.5886 -2.36684
lfingers 7.12502
lthumb -12.5712 27.2349
rfemur 184.876 393.161 -157.264
rtibia 40.3802
rfoot -14.5561 -64.5309
rtoes -1.23613
lfemur -3.89477 -3.82053 -35.6746
ltibia 22.5652
lfoot -17.3974 -12.0669
ltoes -4.12935
294
root 10.2089 17.8321 -13.1778 -178.151 -0.524419 -187.221
lowerback -1.07572 0.352924 -0.201868
upperback -0.00802255 0.463223 -1.30967
thorax 0.603856 0.225086 -1.2201
lowerneck -10.4798 5.28715 -6.7363
upperneck 28.1883 5.39471 6.59943
head 10.2696 1.82455 3.99914
rclavicle -2.00027e-015 -1.74931e-014
rhumerus -88.7649 32.7881 -120.354
rradius 91.5763
rwrist 32.5984
rhand -44.0218 -0.30866
rfingers 7.12502
rthumb -16.8422 -29.5983
lclavicle -2.00027e-015 -1.74931e-014
lhumerus -88.2008 -45.7161 116.791
lradius 83.272
lwrist -20.1223
lhand -39.2386 -2.48936
lfingers 7.12502
lthumb -12.2337 27.1328
rfemur 188.449 394.69 -154.954
rtibia 38.4445
rfoot -18.0808 -63.3236
rtoes -0.572495
lfemur -3.31045 -3.11912 -36.222
ltibia 22.0096
lfoot -17.5947 -12.5625
ltoes -4.17322
295
root 10.1942 17.8 -13.3487 -177.92 -0.385242 -187.637
lowerback -1.55112 0.282941 -0.428166
upperback -0.0968252 0.374011 -1.35005
thorax 0.77641 0.178263 -1.13399
lowerneck -10.4398 5.19906 -7.02203
upperneck 28.0937 5.40961 6.33214
head 10.2285 1.77221 3.94812
rclavicle -1.57785e-015 4.77083e-015
rhumerus -88.5865 32.579 -120.25
rradius 91.2174
rwrist 33.9335
rhand -44.4452 -1.69464
rfingers 7.12502
rthumb -17.2497 -30.9491
lclavicle -1.57785e-015 4.77083e-015
lhumerus -88.1139 -45.6776 116.585
lradius 83.3157
lwrist -19.827
lhand -38.9852 -2.73841
lfingers 7.12502
lthumb -11.9893 26.8982
rfemur 192.021 396.479 -152.314
rtibia 36.6216
rfoot -21.6913 -62.3817
rtoes 1.04004
lfemur -2.68499 -2.77555 -36.7224
ltibia 21.5022
lfoot -17.8742 -12.8788
ltoes -4.35255
296
root 10.18 17.7706 -13.515 -177.606 -0.291727 -187.926
lowerback -2.02905 0.22379 -0.523573
upperback -0.235226 0.297483 -1.38405
thorax 0.900931 0.137786 -1.11565
lowerneck -10.3983 5.19114 -7.02539
upperneck 28.1219 5.45223 6.08186
head 10.2387 1.75485 3.86251
rclavicle 1.47846e-015 7.15625e-015
rhumerus -88.455 32.2637 -120.195
rradius 91.1864
rwrist 34.2925
rhand -44.5028 -2.78821
rfingers 7.12502
rthumb -17.3051 -32.0378
lclavicle 1.47846e-015 7.15625e-015
lhumerus -88.3484 -45.9104 116.736
lradius 83.2849
lwrist -19.3704
lhand -38.832 -3.11395
lfingers 7.12502
lthumb -11.8416 26.5312
rfemur 195.815 398.405 -149.127
rtibia 34.9496
rfoot -26.1587 -61.607
rtoes 1.63949
lfemur -2.17461 -2.42994 -37.0756
ltibia 20.9911
lfoot -18.0869 -13.2557
ltoes -4.72983
